<mxfile host="Electron" modified="2025-07-03T19:44:50.551Z" agent="Mozilla/5.0 (Windows NT 10.0; Win64; x64) AppleWebKit/537.36 (KHTML, like Gecko) draw.io/24.0.4 Chrome/120.0.6099.109 Electron/28.1.0 Safari/537.36" etag="YWgErqFm27M6nFkmEFsl" version="24.0.4" type="device">
  <diagram name="Page-1" id="cWR2kvsjqK5DnU9BWyxh">
    <mxGraphModel dx="1276" dy="606" grid="1" gridSize="10" guides="1" tooltips="1" connect="1" arrows="1" fold="1" page="1" pageScale="1" pageWidth="850" pageHeight="1100" math="0" shadow="0">
      <root>
        <mxCell id="0" />
        <mxCell id="1" parent="0" />
        <mxCell id="gkCFAGQzwn8Dh7KJZnO2-1" value="end" style="ellipse;whiteSpace=wrap;html=1;" parent="1" vertex="1">
          <mxGeometry x="465" y="540" width="120" height="80" as="geometry" />
        </mxCell>
        <mxCell id="gkCFAGQzwn8Dh7KJZnO2-24" style="edgeStyle=orthogonalEdgeStyle;rounded=0;orthogonalLoop=1;jettySize=auto;html=1;exitX=0.5;exitY=1;exitDx=0;exitDy=0;entryX=0.5;entryY=0;entryDx=0;entryDy=0;" parent="1" source="gkCFAGQzwn8Dh7KJZnO2-2" target="gkCFAGQzwn8Dh7KJZnO2-11" edge="1">
          <mxGeometry relative="1" as="geometry" />
        </mxCell>
        <mxCell id="gkCFAGQzwn8Dh7KJZnO2-2" value="start" style="ellipse;whiteSpace=wrap;html=1;" parent="1" vertex="1">
          <mxGeometry x="305" y="50" width="120" height="80" as="geometry" />
        </mxCell>
        <mxCell id="gkCFAGQzwn8Dh7KJZnO2-6" value="" style="edgeStyle=orthogonalEdgeStyle;rounded=0;orthogonalLoop=1;jettySize=auto;html=1;" parent="1" source="gkCFAGQzwn8Dh7KJZnO2-3" target="gkCFAGQzwn8Dh7KJZnO2-5" edge="1">
          <mxGeometry relative="1" as="geometry" />
        </mxCell>
        <mxCell id="gkCFAGQzwn8Dh7KJZnO2-3" value="fetch the data of the post that&#39;s pk matches the pk in the request" style="whiteSpace=wrap;html=1;" parent="1" vertex="1">
          <mxGeometry x="220" y="320" width="130" height="70" as="geometry" />
        </mxCell>
        <mxCell id="gkCFAGQzwn8Dh7KJZnO2-15" value="" style="edgeStyle=orthogonalEdgeStyle;rounded=0;orthogonalLoop=1;jettySize=auto;html=1;" parent="1" source="gkCFAGQzwn8Dh7KJZnO2-5" target="gkCFAGQzwn8Dh7KJZnO2-14" edge="1">
          <mxGeometry relative="1" as="geometry" />
        </mxCell>
        <mxCell id="gkCFAGQzwn8Dh7KJZnO2-5" value="count all the unread notifications" style="whiteSpace=wrap;html=1;" parent="1" vertex="1">
          <mxGeometry x="230" y="480" width="120" height="60" as="geometry" />
        </mxCell>
        <mxCell id="gkCFAGQzwn8Dh7KJZnO2-25" style="edgeStyle=orthogonalEdgeStyle;rounded=0;orthogonalLoop=1;jettySize=auto;html=1;exitX=0.5;exitY=1;exitDx=0;exitDy=0;entryX=0.5;entryY=0;entryDx=0;entryDy=0;" parent="1" source="gkCFAGQzwn8Dh7KJZnO2-11" target="gkCFAGQzwn8Dh7KJZnO2-17" edge="1">
          <mxGeometry relative="1" as="geometry" />
        </mxCell>
        <mxCell id="gkCFAGQzwn8Dh7KJZnO2-11" value="recive request and a pk of the post" style="whiteSpace=wrap;html=1;" parent="1" vertex="1">
          <mxGeometry x="305" y="150" width="120" height="60" as="geometry" />
        </mxCell>
        <mxCell id="gkCFAGQzwn8Dh7KJZnO2-16" value="" style="edgeStyle=orthogonalEdgeStyle;rounded=0;orthogonalLoop=1;jettySize=auto;html=1;" parent="1" source="gkCFAGQzwn8Dh7KJZnO2-14" target="gkCFAGQzwn8Dh7KJZnO2-1" edge="1">
          <mxGeometry relative="1" as="geometry" />
        </mxCell>
        <mxCell id="gkCFAGQzwn8Dh7KJZnO2-14" value="render post detail page" style="whiteSpace=wrap;html=1;" parent="1" vertex="1">
          <mxGeometry x="230" y="560" width="120" height="60" as="geometry" />
        </mxCell>
        <mxCell id="gkCFAGQzwn8Dh7KJZnO2-23" value="no" style="edgeStyle=orthogonalEdgeStyle;rounded=0;orthogonalLoop=1;jettySize=auto;html=1;exitX=1;exitY=0.5;exitDx=0;exitDy=0;" parent="1" source="gkCFAGQzwn8Dh7KJZnO2-17" target="gkCFAGQzwn8Dh7KJZnO2-20" edge="1">
          <mxGeometry relative="1" as="geometry">
            <Array as="points">
              <mxPoint x="418" y="250" />
              <mxPoint x="440" y="250" />
            </Array>
          </mxGeometry>
        </mxCell>
        <mxCell id="gkCFAGQzwn8Dh7KJZnO2-26" value="yes" style="edgeStyle=orthogonalEdgeStyle;rounded=0;orthogonalLoop=1;jettySize=auto;html=1;exitX=0;exitY=0.5;exitDx=0;exitDy=0;entryX=0.5;entryY=0;entryDx=0;entryDy=0;" parent="1" source="gkCFAGQzwn8Dh7KJZnO2-17" target="gkCFAGQzwn8Dh7KJZnO2-3" edge="1">
          <mxGeometry relative="1" as="geometry" />
        </mxCell>
        <mxCell id="gkCFAGQzwn8Dh7KJZnO2-17" value="user logged in&amp;nbsp;" style="rhombus;whiteSpace=wrap;html=1;" parent="1" vertex="1">
          <mxGeometry x="312.5" y="220" width="105" height="90" as="geometry" />
        </mxCell>
        <mxCell id="gkCFAGQzwn8Dh7KJZnO2-22" style="edgeStyle=orthogonalEdgeStyle;rounded=0;orthogonalLoop=1;jettySize=auto;html=1;entryX=0.5;entryY=0;entryDx=0;entryDy=0;" parent="1" source="gkCFAGQzwn8Dh7KJZnO2-20" target="gkCFAGQzwn8Dh7KJZnO2-1" edge="1">
          <mxGeometry relative="1" as="geometry" />
        </mxCell>
        <mxCell id="gkCFAGQzwn8Dh7KJZnO2-20" value="redirect to login page" style="whiteSpace=wrap;html=1;" parent="1" vertex="1">
          <mxGeometry x="380" y="320" width="120" height="60" as="geometry" />
        </mxCell>
      </root>
    </mxGraphModel>
  </diagram>
</mxfile>
